<svg width="51" height="56" viewBox="0 0 51 56" fill="none" xmlns="http://www.w3.org/2000/svg">
<path d="M12.6343 21.9929C12.7335 22.1628 12.7922 22.2706 12.858 22.3745C13.743 23.7706 14.6198 25.1714 15.5199 26.557C15.756 26.9207 15.8821 27.2794 15.8665 27.7185C15.8385 28.5035 15.8653 29.2901 15.8556 30.0759C15.8525 30.3276 15.9431 30.431 16.1987 30.4229C16.5916 30.4104 16.9857 30.4061 17.3774 30.4248C17.6722 30.4388 17.7551 30.3159 17.7512 30.0381C17.7395 29.1598 17.7353 28.2814 17.7559 27.4034C17.7613 27.186 17.8278 26.9433 17.9426 26.76C18.8571 25.3009 19.7903 23.8538 20.7162 22.4021C20.7877 22.2904 20.8465 22.171 20.9503 21.9851C20.3124 21.9851 19.7503 21.9956 19.1886 21.9804C18.9384 21.9734 18.7848 22.0559 18.6584 22.2749C18.295 22.9054 17.913 23.5255 17.5353 24.1479C17.3046 24.5276 17.0677 24.9033 16.8079 25.3235C16.7071 25.1644 16.6375 25.0609 16.5737 24.9539C16.0419 24.06 15.5141 23.1637 14.9765 22.2737C14.9103 22.164 14.7948 22.0088 14.6976 22.0053C14.0339 21.9816 13.3687 21.9929 12.6343 21.9929ZM13.2446 30.4108C13.1859 30.2404 13.1521 30.1214 13.1042 30.0078C12.8984 29.518 12.6876 29.0298 12.4795 28.5409C11.5879 26.4461 10.6924 24.3529 9.81056 22.2539C9.70359 21.9991 9.56588 21.8987 9.29242 21.9178C8.97033 21.9399 8.64434 21.9392 8.32225 21.9182C8.03984 21.8995 7.89202 21.9967 7.77804 22.2667C6.6869 24.8539 5.58097 27.4353 4.48088 30.0187C4.4342 30.1288 4.40581 30.2459 4.3494 30.4201C4.91929 30.4201 5.42576 30.4127 5.93146 30.4232C6.14736 30.4283 6.26872 30.3517 6.34652 30.1455C6.51807 29.6919 6.71841 29.2489 6.89229 28.7961C6.96542 28.6062 7.07356 28.5323 7.27935 28.5343C8.27363 28.5428 9.26791 28.5424 10.2618 28.5343C10.4664 28.5327 10.5796 28.6055 10.6516 28.7949C10.8247 29.2485 11.0048 29.6997 11.1981 30.1447C11.2432 30.2482 11.3514 30.396 11.4354 30.3991C12.0209 30.4213 12.6071 30.4108 13.2446 30.4108ZM21.4506 42.1804C21.3961 42.015 21.3771 41.9368 21.3456 41.8633C20.3451 39.5134 19.3457 37.1627 18.3402 34.815C18.1776 34.4362 18.0772 33.9207 17.7815 33.7387C17.4672 33.545 16.9538 33.6866 16.5294 33.6547C16.2244 33.6321 16.0781 33.7616 15.9634 34.0347C14.8691 36.634 13.7624 39.2279 12.6612 41.8236C12.6195 41.9225 12.5939 42.0287 12.5421 42.1889C13.1116 42.1889 13.6181 42.1811 14.1242 42.1928C14.344 42.1979 14.4618 42.1092 14.5389 41.9096C14.71 41.4677 14.9037 41.0348 15.0737 40.5925C15.1496 40.3945 15.2585 40.2995 15.4814 40.3011C16.4757 40.3097 17.47 40.3085 18.4639 40.3011C18.6685 40.2999 18.7813 40.3774 18.854 40.566C19.0295 41.0184 19.2135 41.4681 19.4095 41.912C19.4554 42.0158 19.5612 42.1656 19.6445 42.1687C20.2272 42.1909 20.8111 42.1804 21.4506 42.1804ZM32.3729 37.934C32.3729 39.229 32.3737 40.524 32.3717 41.819C32.3717 42.0162 32.3737 42.1944 32.6503 42.1893C33.8978 42.1679 35.1523 42.2267 36.3921 42.117C38.588 41.9228 40.1615 40.1331 40.1642 37.9562C40.1673 35.77 38.6125 34.0005 36.3991 33.7982C35.1943 33.6877 33.9744 33.7496 32.7619 33.7169C32.4534 33.7087 32.3644 33.8208 32.3675 34.1187C32.3799 35.3904 32.3725 36.6624 32.3729 37.934ZM9.63318 39.2473C10.0401 38.9275 10.459 38.6949 10.7473 38.3522C11.4848 37.4758 11.5451 36.4481 11.1674 35.4098C10.7947 34.3864 9.95177 33.8725 8.92637 33.8044C7.47579 33.7083 6.01665 33.7457 4.56102 33.722C4.32956 33.7185 4.30272 33.8577 4.30272 34.0382C4.30389 36.6507 4.30544 39.2633 4.30039 41.8762C4.3 42.1228 4.40386 42.1986 4.63493 42.1924C5.02743 42.1815 5.42109 42.1772 5.8136 42.1936C6.0999 42.2056 6.20104 42.0963 6.19443 41.8112C6.18003 41.1643 6.20026 40.5162 6.18626 39.8693C6.17964 39.5943 6.25278 39.4597 6.55347 39.4865C6.79426 39.5079 7.04011 39.5075 7.2809 39.4862C7.54853 39.4624 7.7053 39.5772 7.84456 39.7931C8.25184 40.4244 8.70153 41.0297 9.08508 41.6747C9.32042 42.0695 9.59311 42.2418 10.0595 42.1998C10.5462 42.1559 11.0398 42.1897 11.6373 42.1897C10.9196 41.1355 10.2665 40.177 9.63318 39.2473ZM28.0776 27.0234C28.0504 27.0288 28.0231 27.0347 27.9959 27.0405C26.988 25.7183 25.9735 24.4011 24.9749 23.0723C24.1308 21.9493 24.139 21.9505 22.7491 21.9792C22.4674 21.9851 22.39 22.0913 22.3974 22.3507C22.4103 22.8245 22.4001 23.2983 22.4001 23.7721C22.4001 25.8521 22.4064 27.9325 22.3947 30.0125C22.3927 30.3338 22.4989 30.4443 22.8136 30.4252C23.1591 30.4042 23.508 30.4011 23.8531 30.426C24.1961 30.4505 24.2841 30.3097 24.2809 29.9856C24.2673 28.5179 24.2751 27.0502 24.2751 25.5829V25.1426C24.393 25.2795 24.4404 25.3289 24.4817 25.3834C25.518 26.7441 26.5589 28.1013 27.5867 29.4679C28.3332 30.4598 28.3254 30.4598 29.5698 30.4248C29.8191 30.4178 29.9238 30.34 29.9164 30.0821C29.9032 29.632 29.9133 29.1812 29.9133 28.7303V22.5246C29.9133 21.9855 29.9125 21.9855 29.3582 21.9851C29.0808 21.9847 28.8019 22.0045 28.5265 21.9804C28.1834 21.9501 28.0644 22.0644 28.0702 22.4231C28.09 23.7056 28.0776 24.9885 28.0776 26.2711V27.0234ZM28.0807 38.7692C28.0566 38.7778 28.0321 38.7867 28.008 38.7957C27.9368 38.7124 27.8617 38.6327 27.7956 38.5459C26.8289 37.2778 25.8097 36.0455 24.9189 34.726C24.3903 33.9429 23.8005 33.5905 22.8693 33.7294C22.4215 33.7959 22.406 33.7496 22.406 34.2067C22.4048 36.4368 22.4052 38.6669 22.4056 40.8971C22.4056 41.232 22.413 41.5673 22.4044 41.9022C22.3994 42.1259 22.4939 42.2111 22.7152 42.2049C23.0964 42.1951 23.4792 42.1827 23.8585 42.2088C24.2012 42.2325 24.2887 42.0983 24.2852 41.7719C24.2704 40.3046 24.2786 38.8369 24.2798 37.3696C24.2798 37.2498 24.2907 37.1304 24.2992 36.9452C24.4089 37.0712 24.4712 37.1362 24.5252 37.2074C25.5557 38.558 26.5865 39.9078 27.6139 41.2604C28.3526 42.2337 28.3503 42.2356 29.564 42.2025C29.5752 42.2025 29.5869 42.201 29.5982 42.2025C29.8397 42.2278 29.9214 42.1142 29.9211 41.8789C29.9168 39.2792 29.916 36.6791 29.9222 34.0795C29.923 33.8184 29.8199 33.7317 29.5737 33.7379C29.2045 33.748 28.8338 33.7554 28.4646 33.7356C28.1562 33.7196 28.0721 33.8426 28.0745 34.1405C28.0881 35.5615 28.0807 36.9829 28.0807 38.404V38.7692ZM23.4088 0H46.3388C46.8764 0 46.8768 -5.56468e-07 46.8768 0.519703C46.8771 15.7696 46.8771 31.02 46.8768 46.2699C46.8768 46.7752 46.876 46.7756 46.3609 46.7756C31.0861 46.776 15.8113 46.776 0.536041 46.7756C9.27447e-08 46.7756 0 46.7752 0 46.2228V0.541875C0 0.000388136 -2.78234e-07 0.000388786 0.548878 0.000388786C8.16899 0.000388786 15.7887 0.000388999 23.4088 0Z" fill="#858D99"/>
<path d="M26.117 51.2098C26.6488 51.2098 27.1805 51.2195 27.7119 51.2055C27.9741 51.1985 28.0826 51.2744 28.0791 51.5568C28.0717 52.124 28.0865 52.1205 27.5081 52.1255C26.464 52.1345 26.634 52.0139 26.6235 53.0035C26.6138 53.8585 26.6122 54.7139 26.6258 55.5689C26.6297 55.844 26.5332 55.9303 26.2637 55.9221C25.5265 55.8992 25.6113 56.005 25.6074 55.2791C25.6028 54.3549 25.5981 53.4302 25.6109 52.506C25.6148 52.2181 25.5082 52.1088 25.227 52.1232C24.9738 52.1364 24.7182 52.1189 24.4646 52.1259C24.2494 52.1321 24.1351 52.0536 24.1522 51.8244C24.16 51.7206 24.1604 51.6155 24.1518 51.5125C24.1343 51.2903 24.2273 51.2028 24.4533 51.2067C25.0076 51.2168 25.5623 51.2098 26.117 51.2098Z" fill="#858D99"/>
<path d="M50.8535 45.4643C50.8523 44.7384 50.249 44.1316 49.5325 44.1355C48.8288 44.1394 48.234 44.7439 48.2367 45.4522C48.2398 46.1684 48.8303 46.7562 49.5433 46.7527C50.2719 46.7488 50.8547 46.1762 50.8535 45.4643ZM49.5402 46.8569C48.7097 46.8557 48.1231 46.2695 48.1247 45.4425C48.1258 44.6326 48.7424 44.0083 49.5395 44.0094C50.3427 44.0106 50.9854 44.6567 50.9877 45.4643C50.9896 46.2621 50.3704 46.8581 49.5402 46.8569Z" fill="#858D99"/>
<path d="M49.5231 45.5265C49.6931 45.348 49.7888 45.2476 49.8837 45.1477C49.7651 45.0671 49.6542 44.9461 49.5251 44.922C49.4543 44.9088 49.2882 45.0547 49.2823 45.1368C49.2753 45.2321 49.3979 45.3363 49.5231 45.5265ZM49.951 45.6744C50.0331 45.8218 50.1152 45.9696 50.2043 46.1291C49.939 46.2252 49.8413 46.0556 49.7165 45.9019C49.6383 45.8051 49.5115 45.7475 49.406 45.6724C49.3555 45.7747 49.3119 45.8813 49.2516 45.9774C49.215 46.035 49.152 46.0754 49.1011 46.1236C49.0591 46.0649 48.982 46.0073 48.9805 45.9474C48.9692 45.5791 48.9723 45.2099 48.9778 44.8411C48.9785 44.7898 49.003 44.7233 49.0408 44.6906C49.2827 44.479 50.1381 44.6925 50.1848 45.0026C50.2156 45.2079 50.1 45.4351 50.0502 45.6526C50.0175 45.66 49.9841 45.667 49.951 45.6744Z" fill="#858D99"/>
<path d="M7.97798 53.0373V55.2803C7.97798 55.9299 7.82744 56.054 7.18015 55.9035C7.10546 55.886 7.00626 55.7518 7.00587 55.6709C6.99498 54.2724 6.99926 52.874 6.99615 51.4751C6.99576 51.2833 7.07939 51.2234 7.26611 51.2059C7.69829 51.1643 8.01649 51.2549 8.28685 51.6575C8.77582 52.3854 9.3387 53.0634 9.87202 53.7613C9.93932 53.8492 10.014 53.9312 10.1502 54.0927C10.1626 53.8519 10.1758 53.7084 10.1762 53.5644C10.1789 52.9055 10.1875 52.2465 10.1735 51.5879C10.1673 51.3082 10.2552 51.2001 10.5481 51.2036C11.1623 51.2114 11.1627 51.1974 11.1627 51.824C11.1627 53.0144 11.1682 54.2047 11.1561 55.3954C11.1542 55.5666 11.0744 55.8797 11.0126 55.8844C10.713 55.9074 10.3797 56.0423 10.1284 55.6985C9.54876 54.9057 8.94348 54.1316 8.34792 53.3501C8.25923 53.2334 8.16665 53.119 8.07601 53.0035C8.04333 53.0148 8.01066 53.026 7.97798 53.0373Z" fill="#858D99"/>
<path d="M39.2886 53.5321C39.2886 52.8848 39.2979 52.2372 39.2839 51.5899C39.2781 51.316 39.3504 51.1981 39.6511 51.2036C40.5987 51.2199 41.5475 51.2261 42.4947 51.2016C42.8837 51.1915 42.8491 51.4121 42.8557 51.6649C42.8627 51.9376 42.8475 52.1286 42.4772 52.1103C41.8661 52.0804 41.2518 52.1115 40.6395 52.0983C40.382 52.0932 40.2743 52.1901 40.3 52.4418C40.3011 52.4534 40.3 52.4651 40.3 52.4768C40.2856 53.0895 40.2856 53.0895 40.885 53.0902C41.3242 53.0902 41.7638 53.0996 42.2029 53.0867C42.4375 53.0797 42.5534 53.154 42.5289 53.401C42.52 53.4925 42.5211 53.5862 42.5285 53.678C42.5468 53.9005 42.4515 53.988 42.2271 53.9842C41.7182 53.9748 41.209 53.9947 40.701 53.9772C40.4069 53.9667 40.2883 54.0534 40.293 54.3665C40.3027 55.0236 40.2871 55.024 40.9488 55.024C41.4806 55.0243 42.0131 55.0395 42.5441 55.0201C42.9576 55.0049 42.8533 55.2885 42.8693 55.5137C42.8868 55.7576 42.8662 55.9307 42.5332 55.9241C41.5623 55.905 40.5909 55.9093 39.6196 55.9229C39.3535 55.9264 39.2804 55.8265 39.2847 55.5783C39.2959 54.8964 39.2886 54.2141 39.2886 53.5321Z" fill="#858D99"/>
<path d="M29.1357 52.8269C29.1357 52.3877 29.1431 51.9481 29.133 51.509C29.1275 51.2833 29.2182 51.2044 29.4399 51.2071C30.2766 51.2184 30.1416 51.1351 30.1506 51.9007C30.1591 52.6172 30.1413 53.3349 30.1654 54.0507C30.1875 54.7022 30.5765 55.052 31.2098 55.0411C31.8147 55.0313 32.1816 54.6727 32.1967 54.0269C32.2158 53.2295 32.2193 52.4309 32.1998 51.6338C32.1913 51.3005 32.2951 51.162 32.6305 51.2071C32.7444 51.2227 32.8759 51.1783 32.9732 51.2207C33.0728 51.2639 33.2105 51.3794 33.2116 51.4646C33.2237 52.4009 33.263 53.3411 33.1949 54.2728C33.1066 55.4729 32.0863 56.159 30.7956 55.9684C29.76 55.8156 29.1761 55.1663 29.1411 54.1102C29.1267 53.6827 29.1388 53.2548 29.1388 52.8269H29.1357Z" fill="#858D99"/>
<path d="M12.4126 55.2068C12.6017 54.9839 12.7787 54.7754 12.9681 54.5521C13.1778 54.6707 13.361 54.7867 13.5555 54.8812C13.9153 55.0555 14.2989 55.1815 14.6898 55.036C14.847 54.9777 15.0477 54.8014 15.0621 54.6618C15.0761 54.5241 14.9115 54.2903 14.7692 54.2288C14.3475 54.0468 13.8947 53.9375 13.4598 53.7834C13.0506 53.6379 12.7316 53.3948 12.6188 52.9401C12.3998 52.0586 12.9339 51.2896 13.8885 51.1624C14.5253 51.0772 15.1259 51.2094 15.6864 51.5358C15.9167 51.67 15.9435 51.8026 15.7736 51.9964C15.7203 52.0563 15.674 52.1251 15.6366 52.1959C15.5164 52.427 15.3822 52.4402 15.1372 52.329C14.8197 52.185 14.4673 52.0971 14.1211 52.0469C13.8865 52.0131 13.6531 52.1275 13.5991 52.4025C13.5419 52.6896 13.7391 52.8238 13.9717 52.9047C14.4183 53.0595 14.8831 53.1715 15.3141 53.3602C16.0832 53.6967 16.3427 54.5167 15.9082 55.2371C15.7786 55.4522 15.5608 55.6483 15.3375 55.7666C14.5015 56.2085 13.114 55.942 12.4126 55.2068Z" fill="#858D99"/>
<path d="M18.9789 51.2094C19.5103 51.2094 20.0416 51.2223 20.5726 51.2044C20.85 51.195 20.9558 51.2981 20.9254 51.565C20.92 51.6105 20.9188 51.6579 20.9258 51.7031C20.9725 52.024 20.8671 52.145 20.5147 52.1341C19.4819 52.1026 19.4811 52.1189 19.4811 53.156C19.4811 53.9643 19.4737 54.7727 19.4854 55.581C19.4893 55.8335 19.4099 55.9284 19.1493 55.9218C18.3343 55.9011 18.4685 56.0023 18.4619 55.248C18.4534 54.3471 18.4456 53.4462 18.4674 52.546C18.4755 52.2029 18.3538 52.0928 18.029 52.1209C17.7878 52.1415 17.5435 52.115 17.3015 52.1302C17.0923 52.1438 16.995 52.0703 17.0152 51.8579C17.0172 51.8345 17.0152 51.8116 17.0148 51.7883C17.0036 51.2098 17.0036 51.2094 17.5929 51.2094H18.9789Z" fill="#858D99"/>
<path d="M36.2504 51.2098C36.7927 51.2098 37.3353 51.218 37.8776 51.2059C38.1122 51.2009 38.2258 51.2771 38.2032 51.5214C38.1947 51.6132 38.1958 51.7066 38.2032 51.7984C38.2215 52.0329 38.1239 52.1372 37.8827 52.1267C37.6178 52.1154 37.3513 52.1352 37.0864 52.1232C36.8293 52.1115 36.7484 52.2216 36.7507 52.4725C36.7608 53.4874 36.7429 54.5031 36.7612 55.5184C36.767 55.8416 36.6597 55.9611 36.3469 55.9194C36.2567 55.9074 36.1614 55.9082 36.0703 55.919C35.8116 55.9498 35.7296 55.8385 35.7323 55.5833C35.7428 54.568 35.7253 53.5524 35.7428 52.5375C35.7482 52.2189 35.6448 52.0932 35.3293 52.122C35.1461 52.1384 34.9601 52.1251 34.7753 52.1247C34.3451 52.124 34.0927 51.6867 34.3249 51.3152C34.3685 51.2452 34.5206 51.216 34.6232 51.2145C35.1655 51.2048 35.7078 51.2098 36.2504 51.2098Z" fill="#858D99"/>
<path d="M5.40672 53.5672C5.40633 54.2257 5.39583 54.8843 5.41178 55.5425C5.41839 55.8226 5.3367 55.9338 5.04184 55.9233C4.30936 55.8969 4.39105 56.0116 4.38871 55.2791C4.38443 54.0662 4.39688 52.853 4.38093 51.6401C4.37704 51.3168 4.45834 51.1538 4.803 51.2094C4.81467 51.2114 4.82634 51.2098 4.83762 51.2098C5.40633 51.2079 5.40633 51.2079 5.40672 51.7649V53.5672Z" fill="#858D99"/>
<path d="M23.0401 53.585C23.0401 54.2432 23.0323 54.9014 23.044 55.5592C23.0482 55.8198 22.9716 55.9319 22.6896 55.9225C21.9831 55.8996 22.052 55.991 22.0501 55.2947C22.0469 54.0709 22.0645 52.8467 22.0407 51.6233C22.0329 51.2324 22.2119 51.195 22.5215 51.2048C23.0338 51.2207 23.0377 51.2083 23.0397 51.6109C23.0424 52.2691 23.0405 52.9272 23.0401 53.585Z" fill="#858D99"/>
<path d="M6.19249 36.606C6.19249 36.3061 6.19716 36.0062 6.19093 35.7066C6.18665 35.5063 6.26328 35.4067 6.47451 35.4133C7.11908 35.4336 7.76677 35.4172 8.40823 35.4721C9.08431 35.53 9.45853 35.9688 9.46786 36.6161C9.47681 37.2284 9.06914 37.7306 8.42106 37.7843C7.75665 37.8387 7.08485 37.8166 6.41655 37.8022C6.33992 37.8002 6.21155 37.6365 6.2026 37.5392C6.17459 37.2303 6.19249 36.9176 6.19249 36.606Z" fill="#858D99"/>
<path d="M34.2588 37.9461C34.2588 37.2304 34.272 36.5138 34.2525 35.7984C34.244 35.488 34.356 35.3896 34.654 35.4094C35.1025 35.439 35.5545 35.4223 36.0019 35.46C37.326 35.5724 38.2184 36.622 38.1993 38.0224C38.1814 39.3733 37.2688 40.3669 35.9478 40.4575C35.4989 40.4882 35.0476 40.4793 34.5984 40.5014C34.3474 40.5139 34.2502 40.4229 34.2545 40.1626C34.2673 39.4239 34.2591 38.6848 34.2588 37.9461Z" fill="#858D99"/>
<path d="M17.021 36.0801C17.3577 36.8994 17.694 37.7185 18.0536 38.5938L15.8889 38.5937C16.2376 37.7409 16.5788 36.9065 16.9201 36.0722C16.9538 36.075 16.9877 36.0774 17.021 36.0801Z" fill="#858D99"/>
<path d="M9.84905 26.8386H7.69399C8.04954 25.9626 8.38913 25.1274 8.76802 24.1946C9.14807 25.1243 9.48883 25.9571 9.84905 26.8386Z" fill="#858D99"/>
</svg>
