<svg width="96" height="96" viewBox="0 0 96 96" fill="none" xmlns="http://www.w3.org/2000/svg">
<circle cx="48" cy="48" r="48" fill="#FF512F"/>
<path fill-rule="evenodd" clip-rule="evenodd" d="M45.9042 76C43.0633 76 40.3212 75.5769 37.7375 74.7903V50.3333V45.6667V21.2097C40.3212 20.4231 43.0633 20 45.9042 20H73.9042V48C73.9042 40.268 67.6362 34 59.9042 34C52.1722 34 45.9042 40.268 45.9042 48C45.9042 55.732 52.1722 62 59.9042 62C67.6362 62 73.9042 55.732 73.9042 48V76H45.9042ZM33.0708 45.6667V23.1076C24.7155 27.4239 18.812 35.8234 18 45.6667H33.0708ZM18 50.3333C18.812 60.1766 24.7155 68.5761 33.0708 72.8924V50.3333H18Z" fill="white"/>
</svg>
