<svg width="159" height="48" viewBox="0 0 159 48" fill="none" xmlns="http://www.w3.org/2000/svg">
<path d="M64.0037 20.6993H65.3068V30.3529H64.0037V20.6993ZM64.6644 18.5887C64.5385 18.5916 64.4132 18.5687 64.2964 18.5214C64.1796 18.474 64.0738 18.4032 63.9854 18.3134C63.8968 18.2279 63.8267 18.1252 63.7794 18.0116C63.732 17.8979 63.7084 17.7758 63.7101 17.6527C63.7097 17.5325 63.7339 17.4135 63.7813 17.303C63.8286 17.1926 63.8981 17.093 63.9854 17.0104C64.0738 16.9205 64.1796 16.8497 64.2964 16.8024C64.4132 16.7551 64.5385 16.7321 64.6644 16.7351C64.7897 16.7319 64.9142 16.7538 65.0309 16.7995C65.1475 16.8452 65.2538 16.9138 65.3435 17.0012C65.4314 17.0818 65.5013 17.1801 65.5487 17.2895C65.5961 17.399 65.62 17.5172 65.6188 17.6365C65.6217 17.7625 65.5988 17.8877 65.5515 18.0045C65.5041 18.1213 65.4333 18.2271 65.3435 18.3155C65.2549 18.405 65.149 18.4754 65.0322 18.5223C64.9154 18.5693 64.7903 18.5919 64.6644 18.5887ZM73.8593 20.6259C74.3878 20.5986 74.9164 20.678 75.4136 20.8593C75.9108 21.0406 76.3665 21.3201 76.7534 21.6812C77.1311 22.0941 77.4208 22.5796 77.6048 23.1081C77.7888 23.6366 77.8632 24.1971 77.8235 24.7553V30.3529H76.5204V24.8838C76.5792 24.0497 76.3091 23.2257 75.768 22.5882C75.4849 22.3142 75.1477 22.1023 74.7778 21.9664C74.408 21.8305 74.0139 21.7735 73.6207 21.7991C73.1673 21.7752 72.7138 21.8452 72.2887 22.0047C71.8636 22.1641 71.4759 22.4097 71.1501 22.7259C70.8359 23.0709 70.5939 23.4753 70.4382 23.9152C70.2826 24.3551 70.2164 24.8217 70.2437 25.2875V30.3529H68.9379V20.6993H70.1859V22.4795C70.5394 21.8934 71.0516 21.4194 71.6633 21.1122C72.3455 20.7759 73.0988 20.609 73.8593 20.6259ZM86.4494 29.7656C86.1858 29.9964 85.8761 30.1684 85.5409 30.2704C85.1759 30.3873 84.7948 30.4461 84.4115 30.4447C84.0314 30.4694 83.6503 30.417 83.2909 30.2909C82.9315 30.1648 82.6013 29.9674 82.32 29.7106C82.0641 29.4322 81.8672 29.105 81.7411 28.7486C81.6149 28.3922 81.5621 28.014 81.5859 27.6367V21.8005H79.8607V20.6993H81.5859V18.5887H82.8889V20.6993H85.8254V21.8005H82.8889V27.5633C82.8551 28.0403 83.01 28.5116 83.3202 28.8755C83.4842 29.0323 83.6791 29.1532 83.8924 29.2306C84.1056 29.308 84.3327 29.3402 84.559 29.3252C84.8232 29.3254 85.0855 29.282 85.3355 29.1967C85.5744 29.1178 85.7957 28.9931 85.987 28.8296L86.4494 29.7656ZM96.8739 25.9299H88.7986C88.8184 26.392 88.931 26.8455 89.1297 27.2632C89.3283 27.681 89.6089 28.0545 89.9548 28.3616C90.6875 28.9925 91.6314 29.3235 92.5976 29.2885C93.1643 29.2949 93.7264 29.1856 94.2494 28.9673C94.7482 28.7544 95.1926 28.4318 95.5496 28.0235L96.2837 28.8706C95.8524 29.3851 95.3022 29.7868 94.6807 30.0409C94.0089 30.3157 93.2888 30.453 92.563 30.4447C91.6452 30.462 90.7384 30.2432 89.9294 29.8094C89.1807 29.4043 88.5601 28.798 88.1379 28.0588C87.7029 27.2865 87.4812 26.4124 87.4955 25.5261C87.4809 24.6432 87.6926 23.7713 88.1103 22.9934C88.5008 22.2671 89.0854 21.6635 89.7988 21.2499C90.5327 20.8291 91.3663 20.6136 92.2122 20.6259C93.0553 20.6128 93.8862 20.8284 94.6164 21.2499C95.3228 21.6625 95.9009 22.2628 96.2866 22.9842C96.7004 23.7663 96.9088 24.6407 96.8922 25.5254L96.8739 25.9299ZM92.215 21.7454C91.3481 21.7213 90.5068 22.0413 89.875 22.6355C89.2367 23.246 88.8532 24.0755 88.8014 24.9572H95.6485C95.5967 24.0755 95.2131 23.246 94.5748 22.6355C93.936 22.038 93.0865 21.7179 92.2122 21.7454H92.215ZM100.801 22.5882C101.085 21.9632 101.565 21.4477 102.169 21.12C102.865 20.7693 103.638 20.5994 104.417 20.6259V21.8922L104.105 21.8739C103.663 21.8497 103.222 21.9207 102.81 22.0822C102.398 22.2437 102.026 22.4919 101.719 22.8099C101.106 23.542 100.797 24.4814 100.856 25.4344V30.3529H99.5534V20.6993H100.801V22.5882ZM110.106 17.7445C109.873 17.7274 109.64 17.7594 109.42 17.8385C109.2 17.9175 108.999 18.0418 108.831 18.2033C108.517 18.5832 108.361 19.0697 108.397 19.5614V20.6993H111.373V21.8005H108.436V30.3529H107.133V21.8005H105.408V20.6993H107.133V19.5064C107.113 19.1243 107.17 18.7422 107.301 18.3827C107.432 18.0232 107.634 17.6938 107.895 17.4141C108.183 17.1457 108.523 16.9389 108.894 16.8063C109.264 16.6738 109.658 16.6183 110.051 16.6433C110.412 16.6423 110.771 16.6949 111.116 16.7993C111.431 16.8889 111.724 17.0419 111.978 17.2489L111.538 18.2216C111.134 17.895 110.625 17.7255 110.106 17.7445ZM116.328 20.6259C117.38 20.5549 118.419 20.8936 119.228 21.5711C119.583 21.9406 119.856 22.3808 120.03 22.863C120.204 23.3452 120.275 23.8586 120.237 24.3699V30.3529H118.989V28.848C118.685 29.3597 118.234 29.7687 117.695 30.0226C117.061 30.3181 116.367 30.4626 115.667 30.4447C114.747 30.4936 113.839 30.2211 113.098 29.6739C112.79 29.4331 112.543 29.1232 112.377 28.7693C112.212 28.4153 112.131 28.0274 112.143 27.6367C112.131 27.2603 112.205 26.8861 112.359 26.5425C112.513 26.199 112.744 25.8953 113.034 25.6546C113.863 25.0835 114.865 24.8175 115.869 24.9021H118.934V24.3148C118.959 23.9669 118.909 23.6178 118.789 23.2904C118.669 22.963 118.48 22.6648 118.237 22.4153C117.666 21.9447 116.937 21.7114 116.199 21.7638C115.598 21.7615 115.001 21.864 114.435 22.0666C113.903 22.2505 113.411 22.5339 112.985 22.9016L112.398 21.9289C112.918 21.4962 113.517 21.1689 114.162 20.9654C114.861 20.7369 115.593 20.6222 116.328 20.6259ZM115.869 29.4169C116.535 29.4356 117.192 29.2602 117.76 28.9122C118.296 28.563 118.707 28.052 118.934 27.4532V25.8748H115.906C114.254 25.8748 113.428 26.4499 113.428 27.6C113.419 27.8574 113.472 28.1132 113.584 28.3451C113.696 28.577 113.863 28.778 114.071 28.9306C114.601 29.2845 115.233 29.4552 115.869 29.4169ZM127.817 30.4447C126.924 30.4599 126.042 30.245 125.257 29.8207C124.514 29.414 123.9 28.8067 123.486 28.068C123.051 27.2923 122.83 26.4157 122.843 25.5268C122.829 24.6406 123.051 23.7664 123.486 22.9941C123.902 22.2593 124.515 21.6555 125.257 21.2506C126.042 20.8263 126.924 20.6114 127.817 20.6266C128.588 20.6131 129.351 20.7796 130.047 21.1129C130.691 21.4268 131.231 21.9209 131.6 22.5353L130.627 23.196C130.328 22.7353 129.909 22.3643 129.416 22.1224C128.918 21.8819 128.372 21.7594 127.819 21.7645C127.162 21.7543 126.514 21.9156 125.938 22.2325C125.383 22.5406 124.93 23.0024 124.632 23.5624C124.313 24.167 124.152 24.8425 124.164 25.5261C124.149 26.2141 124.31 26.8944 124.632 27.5026C124.931 28.0585 125.383 28.5171 125.935 28.824C126.511 29.1408 127.159 29.3021 127.816 29.292C128.368 29.2967 128.914 29.1768 129.414 28.9412C129.908 28.7043 130.327 28.3354 130.625 27.8753L131.598 28.536C131.227 29.1519 130.685 29.6463 130.038 29.9584C129.345 30.2898 128.585 30.4562 127.817 30.4447ZM142.389 25.9271H134.314C134.334 26.3892 134.446 26.8426 134.645 27.2604C134.844 27.6781 135.124 28.0517 135.47 28.3588C136.203 28.991 137.147 29.323 138.114 29.2885C138.681 29.2949 139.243 29.1856 139.766 28.9673C140.265 28.7546 140.71 28.432 141.068 28.0235L141.802 28.8706C141.37 29.3855 140.818 29.7872 140.196 30.0409C139.524 30.3157 138.804 30.453 138.078 30.4447C137.161 30.462 136.254 30.2432 135.445 29.8094C134.696 29.4043 134.075 28.798 133.653 28.0588C133.218 27.2865 132.996 26.4124 133.011 25.5261C132.996 24.6432 133.208 23.7713 133.626 22.9934C134.016 22.2671 134.601 21.6635 135.314 21.2499C136.048 20.8291 136.882 20.6136 137.728 20.6259C138.571 20.6128 139.401 20.8284 140.132 21.2499C140.838 21.6625 141.416 22.2628 141.802 22.9842C142.216 23.7663 142.424 24.6407 142.408 25.5254L142.389 25.9271ZM137.73 21.7426C136.863 21.7185 136.022 22.0385 135.39 22.6327C134.752 23.2432 134.368 24.0726 134.317 24.9544H141.164C141.112 24.0726 140.728 23.2432 140.09 22.6327C139.451 22.0362 138.601 21.7172 137.728 21.7454L137.73 21.7426ZM145.072 16.7308H146.373V30.3529H145.069L145.072 16.7308ZM158.12 20.6951L153.291 31.5092C153.013 32.2583 152.545 32.9223 151.933 33.4362C151.394 33.8234 150.742 34.0233 150.079 34.0052C149.634 34.0091 149.192 33.9345 148.773 33.7849C148.38 33.6448 148.023 33.4191 147.727 33.1242L148.333 32.1515C148.561 32.3882 148.835 32.5756 149.139 32.7018C149.442 32.8281 149.769 32.8907 150.097 32.8856C150.505 32.8967 150.904 32.7671 151.227 32.5186C151.61 32.1754 151.908 31.7482 152.098 31.2706L152.521 30.3346L148.208 20.6993H149.567L153.199 28.9031L156.833 20.6993L158.12 20.6951Z" fill="#858D99"/>
<path fill-rule="evenodd" clip-rule="evenodd" d="M24 0C37.2548 0 48 10.7452 48 24C48 37.2548 37.2548 48 24 48C10.7452 48 0 37.2548 0 24C0 10.7452 10.7452 0 24 0ZM14.3965 11.713C14.1531 10.0995 14.6399 7.05882 14.6399 7.05882C14.6399 7.05882 16.587 9.41692 17.0737 11.1545C17.5605 12.892 16.952 15.9948 16.952 15.9948C16.952 15.9948 14.6399 13.3264 14.3965 11.713ZM13.7598 18.9739C12.8544 17.6277 12 14.6725 12 14.6725C12 14.6725 14.7572 15.9361 15.9347 17.2865C17.1121 18.6368 17.8833 21.7017 17.8833 21.7017C17.8833 21.7017 14.6652 20.32 13.7598 18.9739ZM20.9817 12.8157C20.9817 12.8157 18.959 15.1041 18.3076 16.5953C17.6563 18.0864 18.1849 21.6064 18.1849 21.6064C18.1849 21.6064 20.3428 19.3329 20.8554 17.6031C21.3679 15.8733 20.9817 12.8157 20.9817 12.8157ZM20.8776 23.2317C21.0662 21.6107 22.3325 18.8135 22.3325 18.8135C22.3325 18.8135 23.5903 21.6167 23.6038 23.4237C23.6172 25.2308 22.2173 28.0546 22.2173 28.0546C22.2173 28.0546 20.6891 24.8528 20.8776 23.2317ZM14.128 23.4883C14.128 23.4883 15.9144 25.9728 17.2137 26.9261C18.5131 27.8794 21.9999 28.0663 21.9999 28.0663C21.9999 28.0663 20.2553 25.4497 18.6987 24.5865C17.142 23.7234 14.128 23.4883 14.128 23.4883ZM22.3664 34.7658C20.8516 34.2383 18.435 32.3896 18.435 32.3896C18.435 32.3896 21.3861 31.7223 23.1214 32.0873C24.8568 32.4524 27.2709 34.4398 27.2709 34.4398C27.2709 34.4398 23.8811 35.2933 22.3664 34.7658ZM24.8082 25.4081C24.8082 25.4081 24.439 28.466 24.7443 30.0684C25.0497 31.6708 27.4628 34.2445 27.4628 34.2445C27.4628 34.2445 27.9513 31.1198 27.3979 29.4031C26.8446 27.6864 24.8082 25.4081 24.8082 25.4081ZM30.7489 34.4003C29.9782 32.9696 29.4139 29.9428 29.4139 29.9428C29.4139 29.9428 32.0354 31.4778 33.0764 32.94C34.1175 34.4023 34.5882 37.5299 34.5882 37.5299C34.5882 37.5299 31.5196 35.831 30.7489 34.4003ZM25.5331 38.3485C25.5331 38.3485 28.3559 39.4457 29.9546 39.5267C31.5532 39.6077 34.5808 37.8338 34.5808 37.8338C34.5808 37.8338 31.7228 36.6025 29.956 36.7398C28.1893 36.877 25.5331 38.3485 25.5331 38.3485Z" fill="#858D99"/>
</svg>
