<svg width="219" height="48" viewBox="0 0 219 48" fill="none" xmlns="http://www.w3.org/2000/svg">
<g clip-path="url(#clip0_61_128)">
<path d="M0.485232 47.6196C0.216782 47.6196 0 47.4028 0 47.1344V17.36C0 7.79353 7.75473 0.0376838 17.3224 0.0376838C17.5896 0.0376838 17.8075 0.254466 17.8075 0.522916V30.2973C17.8064 39.8637 10.0517 47.6196 0.485232 47.6196Z" fill="#858D99"/>
<path d="M24.4264 35.3882C24.0647 35.3882 23.7726 35.0951 23.7726 34.7345V0.653716C23.7726 0.293161 24.0658 0 24.4264 0C33.8378 0 41.4679 7.63004 41.4679 17.0415V18.3467C41.4679 27.7582 33.8378 35.3882 24.4264 35.3882Z" fill="#858D99"/>
<path d="M63.865 14.0253H55.5734L55.5015 35.3889L59.745 35.4609V28.771H63.8639C67.9052 28.771 71.1816 25.4945 71.1816 21.4531V21.343C71.1828 17.3017 67.9063 14.0253 63.865 14.0253ZM63.3247 25.39H59.7462V17.5858C60.1482 17.5858 61.3681 17.5858 63.1057 17.5926C65.3465 17.6005 67.2268 19.2471 67.2268 21.488C67.2268 23.6434 65.4791 25.39 63.3247 25.39Z" fill="#858D99"/>
<path d="M77.3664 21.0649V18.9206H73.051V35.4646H77.3664V26.7304C77.9606 25.1354 79.4219 22.607 82.6894 22.8047L82.7612 18.5611C82.7612 18.5611 79.8039 18.0086 77.3664 21.0649Z" fill="#858D99"/>
<path d="M100.032 27.0662C100.032 31.7164 96.3746 35.487 91.8638 35.487C87.3529 35.487 83.6958 31.7175 83.6958 27.0662C83.6958 22.4162 87.3529 18.6455 91.8638 18.6455C96.3746 18.6455 100.032 22.4162 100.032 27.0662ZM91.8616 22.278C89.4332 22.278 87.4642 24.4323 87.4642 27.0887C87.4642 29.7451 89.4332 31.8995 91.8616 31.8995C94.2899 31.8995 96.2588 29.7451 96.2588 27.0887C96.2588 24.4323 94.2899 22.278 91.8616 22.278Z" fill="#858D99"/>
<path d="M218.353 27.0662C218.353 31.7164 214.681 35.487 210.152 35.487C205.624 35.487 201.953 31.7175 201.953 27.0662C201.953 22.4162 205.624 18.6455 210.152 18.6455C214.681 18.6455 218.353 22.4162 218.353 27.0662ZM210.152 22.278C207.713 22.278 205.737 24.4323 205.737 27.0887C205.737 29.7451 207.714 31.8995 210.152 31.8995C212.588 31.8995 214.566 29.7451 214.566 27.0887C214.566 24.4323 212.588 22.278 210.152 22.278Z" fill="#858D99"/>
<path d="M128.514 27.0662C128.514 31.7164 124.856 35.487 120.345 35.487C115.835 35.487 112.178 31.7175 112.178 27.0662C112.178 22.4162 115.835 18.6455 120.345 18.6455C124.856 18.6455 128.514 22.4162 128.514 27.0662ZM120.344 22.278C117.916 22.278 115.947 24.4323 115.947 27.0887C115.947 29.7451 117.916 31.8995 120.344 31.8995C122.773 31.8995 124.742 29.7451 124.742 27.0887C124.741 24.4323 122.773 22.278 120.344 22.278Z" fill="#858D99"/>
<path d="M108.654 31.9363C107.215 31.9363 107.144 30.5694 107.144 30.5694V22.4406H111.027V18.989H107.144V14.6005L102.9 16.0394C102.9 16.0394 102.887 17.2447 102.876 18.989H100.957V22.4418H102.864C102.86 26.1889 102.892 30.4077 103.044 31.5769C103.331 33.8066 104.482 35.1735 107.647 35.3173C110.813 35.461 111.244 34.6703 111.244 34.6703V31.1457C111.244 31.1457 110.093 31.9363 108.654 31.9363Z" fill="#858D99"/>
<path d="M137.137 31.9363C135.698 31.9363 135.626 30.5694 135.626 30.5694V22.4406H139.511V18.989H135.626V14.6005L131.382 16.0394C131.382 16.0394 131.368 17.2447 131.358 18.989H129.44V22.4418H131.346C131.342 26.1889 131.374 30.4077 131.526 31.5769C131.813 33.8066 132.964 35.1735 136.13 35.3173C139.295 35.461 139.726 34.6703 139.726 34.6703V31.1457C139.726 31.1457 138.576 31.9363 137.137 31.9363Z" fill="#858D99"/>
<path d="M154.978 18.9914L146.849 39.9956H142.534L144.763 34.8883L139.224 21.6523L139.512 18.9914H142.389L146.849 30.428L150.733 18.9914H154.978Z" fill="#858D99"/>
<path d="M173.287 27.1183C173.287 31.7481 169.91 35.502 165.744 35.502C163.684 35.502 161.818 34.5832 160.457 33.095V39.9533H156.418V18.985H160.457V21.1416C161.818 19.6534 163.684 18.7345 165.744 18.7345C169.91 18.7345 173.287 22.4872 173.287 27.1183ZM164.726 22.2469C162.321 22.2469 160.372 24.3978 160.372 27.0498C160.372 29.7028 162.322 31.8526 164.726 31.8526C167.13 31.8526 169.079 29.7016 169.079 27.0498C169.079 24.3978 167.13 22.2469 164.726 22.2469Z" fill="#858D99"/>
<path d="M179.781 21.1347V18.9692H175.519V35.4233H179.781V26.2028C180.212 25.2244 180.903 24.1001 181.938 23.5553C183.988 22.4759 185.014 22.7455 185.014 22.7455V18.6457C185.014 18.6457 181.125 18.5682 179.781 21.1347Z" fill="#858D99"/>
<path d="M191.06 32.8567C191.06 34.2417 189.937 35.3649 188.552 35.3649C187.167 35.3649 186.044 34.2417 186.044 32.8567C186.044 31.4718 187.167 30.3486 188.552 30.3486C189.937 30.3486 191.06 31.4706 191.06 32.8567Z" fill="#858D99"/>
<path d="M199.167 13.9282C199.167 15.3469 198.017 16.496 196.599 16.496C195.18 16.496 194.031 15.3457 194.031 13.9282C194.031 12.5096 195.181 11.3605 196.599 11.3605C198.017 11.3605 199.167 12.5096 199.167 13.9282Z" fill="#858D99"/>
<path d="M198.638 18.8989H194.593V35.4069H198.638V18.8989Z" fill="#858D99"/>
</g>
<defs>
<clipPath id="clip0_61_128">
<rect width="218.353" height="48" fill="white"/>
</clipPath>
</defs>
</svg>
