<svg width="130" height="32" viewBox="0 0 130 32" fill="none" xmlns="http://www.w3.org/2000/svg">
<path d="M12.5599 13.5956C12.1495 13.4208 11.6911 13.2605 11.1849 13.1148C10.6787 12.969 10.0698 12.8962 9.35838 12.8962C8.12701 12.8962 7.18297 13.2823 6.52624 14.0547C5.86951 14.827 5.54115 16.1166 5.54115 17.9235V31.4754H4.02246C2.79109 31.4754 1.81284 31.1548 1.08771 30.5136C0.362569 29.8725 0 28.9399 0 27.7158V16.8743C0 15.7086 0.150501 14.5647 0.4515 13.4426C0.752501 12.3206 1.23136 11.337 1.88809 10.4918C2.54482 9.64663 3.3931 8.96175 4.43292 8.43716C5.47274 7.91257 6.71779 7.65027 8.16806 7.65027C9.01633 7.65027 9.73463 7.76685 10.323 8C10.9113 8.23315 11.3833 8.53187 11.739 8.89617C12.0948 9.26047 12.3547 9.67577 12.5189 10.1421C12.6831 10.6084 12.7652 11.0601 12.7652 11.4973V13.5956L12.5599 13.5956Z" fill="#858D99"/>
<path d="M35.299 20.8962C35.299 28.2987 32.0701 32 25.6123 32C24.2441 32 22.9648 31.7668 21.7745 31.3005C20.5842 30.8342 19.5512 30.1421 18.6756 29.224C17.7999 28.306 17.109 27.184 16.6028 25.8579C16.0965 24.5319 15.8434 23.0091 15.8434 21.2896V7.86884H16.8695C18.4566 7.86884 19.6128 8.21856 20.3379 8.91802C21.063 9.61747 21.4256 10.6667 21.4256 12.0656V20.7213C21.4256 22.8779 21.8566 24.4299 22.7185 25.377C23.5805 26.3242 24.6408 26.7978 25.8996 26.7978C27.0488 26.7978 27.9792 26.3533 28.6906 25.4644C29.4021 24.5756 29.7578 23.1256 29.7578 21.1147V7.86883H30.7429C32.3574 7.86883 33.5203 8.21855 34.2318 8.91801C34.9433 9.61746 35.299 10.6666 35.299 12.0655L35.299 20.8962Z" fill="#858D99"/>
<path d="M57.0533 28.7214C57.0533 29.45 56.7591 30.0911 56.1708 30.6449C55.5825 31.1986 54.9326 31.4755 54.2211 31.4755H43.4262C42.1401 31.4755 41.1892 31.1913 40.5735 30.623C39.9578 30.0547 39.65 29.3042 39.65 28.3716C39.65 27.4682 39.951 26.47 40.553 25.3771C41.155 24.2842 41.9759 23.1257 43.0157 21.9017L48.5979 15.4317C48.9263 15.0237 49.2752 14.5793 49.6446 14.0984C50.014 13.6175 50.2945 13.1731 50.486 12.7651H39.6089V10.9727C39.6089 10.0984 39.9099 9.36254 40.5119 8.76509C41.114 8.16764 42.0306 7.86891 43.262 7.86891H53.3182C53.9749 7.86891 54.5222 7.96363 54.96 8.15307C55.3978 8.3425 55.7467 8.58294 56.0066 8.87438C56.2666 9.16582 56.4581 9.4864 56.5813 9.83613C56.7044 10.1859 56.766 10.5356 56.766 10.8853C56.766 11.8179 56.5334 12.8161 56.0682 13.8798C55.603 14.9436 54.8916 16.0292 53.9338 17.1367L48.3927 23.5192C48.0096 23.9855 47.6265 24.4663 47.2434 24.9618C46.8603 25.4572 46.5456 25.9527 46.2994 26.4481H57.0533L57.0533 28.7214Z" fill="#858D99"/>
<path d="M80.8187 20.8962C80.8187 28.2987 77.5898 32 71.132 32C69.7638 32 68.4845 31.7668 67.2942 31.3005C66.1039 30.8342 65.0709 30.1421 64.1953 29.224C63.3196 28.306 62.6287 27.184 62.1225 25.8579C61.6162 24.5319 61.3631 23.0091 61.3631 21.2896V7.86884H62.3893C63.9764 7.86884 65.1325 8.21856 65.8576 8.91802C66.5827 9.61747 66.9453 10.6667 66.9453 12.0656V20.7213C66.9453 22.8779 67.3763 24.4299 68.2382 25.377C69.1002 26.3242 70.1605 26.7978 71.4193 26.7978C72.5685 26.7978 73.4989 26.3533 74.2104 25.4644C74.9218 24.5756 75.2775 23.1256 75.2775 21.1147V7.86883H76.2626C77.8771 7.86883 79.0401 8.21855 79.7515 8.91801C80.463 9.61746 80.8187 10.6666 80.8187 12.0655L80.8187 20.8962Z" fill="#858D99"/>
<path d="M88.1247 1.95877e-05C89.4655 1.95877e-05 90.4301 0.364318 91.0184 1.09291C91.6067 1.82151 91.9009 2.75412 91.9009 3.89073V17.9672C92.9681 16.4809 94.0421 15.0091 95.123 13.5519C96.2038 12.0947 97.3873 10.7104 98.6734 9.39893C99.3302 8.72862 100.007 8.30603 100.705 8.13117C101.403 7.9563 102.19 7.86887 103.065 7.86887H106.226V8.08745C105.843 8.43718 105.261 9.0492 104.481 9.92352C103.702 10.7978 102.874 11.7596 101.998 12.8088C101.122 13.8579 100.254 14.9217 99.3917 16C98.5298 17.0783 97.8115 18.0109 97.2368 18.7978C98.1125 19.9636 98.995 21.1293 99.8843 22.2951C100.774 23.4608 101.711 24.5829 102.696 25.6612C103.188 26.1858 103.626 26.623 104.009 26.9727C104.392 27.3224 104.748 27.6066 105.077 27.8251C105.405 28.0437 105.72 28.2186 106.021 28.3497C106.322 28.4809 106.636 28.6047 106.965 28.7213C106.664 29.6539 106.253 30.368 105.733 30.8634C105.213 31.3588 104.379 31.6066 103.229 31.6066C102.6 31.6066 101.957 31.4608 101.3 31.1694C100.644 30.878 100.083 30.4845 99.6175 29.9891C98.1946 28.4153 96.8606 26.7832 95.6155 25.0929C94.3705 23.4026 93.1323 21.6831 91.9009 19.9344V31.4317L90.1359 31.4754C87.6185 31.5045 86.3597 30.1202 86.3597 27.3224V0L88.1247 1.95877e-05Z" fill="#858D99"/>
<path d="M129.088 20.8962C129.088 28.2987 125.859 32 119.402 32C118.033 32 116.754 31.7668 115.564 31.3005C114.374 30.8342 113.341 30.1421 112.465 29.224C111.589 28.306 110.898 27.184 110.392 25.8579C109.886 24.5319 109.633 23.0091 109.633 21.2896V7.86884H110.659C112.246 7.86884 113.402 8.21856 114.127 8.91802C114.852 9.61747 115.215 10.6667 115.215 12.0656V20.7213C115.215 22.8779 115.646 24.4299 116.508 25.377C117.37 26.3242 118.43 26.7978 119.689 26.7978C120.838 26.7978 121.769 26.3533 122.48 25.4644C123.191 24.5756 123.547 23.1256 123.547 21.1147V7.86883H124.532C126.147 7.86883 127.31 8.21855 128.021 8.91801C128.733 9.61746 129.088 10.6666 129.088 12.0655L129.088 20.8962Z" fill="#858D99"/>
</svg>
