<svg width="204" height="48" viewBox="0 0 204 48" fill="none" xmlns="http://www.w3.org/2000/svg">
<path fill-rule="evenodd" clip-rule="evenodd" d="M25.2632 48C39.2156 48 50.5263 37.2548 50.5263 24C50.5263 10.7452 39.2156 0 25.2632 0C11.3107 0 0 10.7452 0 24C0 37.2548 11.3107 48 25.2632 48ZM11.4386 32.0839C12.6804 33.4947 14.4706 34.2 16.8092 34.2C19.1638 34.2 20.946 33.4947 22.1556 32.0839C23.3652 30.6543 23.97 28.5475 23.97 25.7635V15.6341C23.97 14.4114 23.4619 13.8 22.4459 13.8C21.4137 13.8 20.8976 14.4114 20.8976 15.6341V25.7353C20.8976 29.3093 19.5348 31.0963 16.8092 31.0963C15.4706 31.0963 14.4464 30.6543 13.7368 29.7702C13.0433 28.8673 12.6966 27.5223 12.6966 25.7353V15.6341C12.6966 14.4114 12.1805 13.8 11.1483 13.8C10.1161 13.8 9.6 14.4114 9.6 15.6341V25.7635C9.6 28.5475 10.2129 30.6543 11.4386 32.0839ZM26.9811 33.7768C27.2391 34.0213 27.5697 34.1436 27.9729 34.1436C28.5697 34.1436 29.118 33.7486 29.618 32.9586L33.658 26.4689L37.7223 32.9586C38.2222 33.7486 38.7625 34.1436 39.3431 34.1436C39.7624 34.1436 40.1011 34.0213 40.3592 33.7768C40.6172 33.5135 40.7624 33.1937 40.7946 32.8175C40.8269 32.4225 40.714 32.0274 40.4559 31.6324L35.4482 23.7884L40.214 16.3395C40.4882 15.9068 40.6091 15.5024 40.5769 15.1262C40.5446 14.7312 40.3995 14.4114 40.1414 14.1669C39.8834 13.9223 39.5528 13.8 39.1496 13.8C38.5367 13.8 37.9884 14.1857 37.5045 14.9569L33.658 21.1644L29.8115 14.9569C29.3277 14.1857 28.7874 13.8 28.1907 13.8C27.8036 13.8 27.481 13.9317 27.223 14.1951C26.965 14.4396 26.8198 14.7594 26.7875 15.1544C26.7553 15.5306 26.8682 15.9256 27.1262 16.3395L31.892 23.7884L26.8601 31.6324C26.6021 32.0274 26.4892 32.4225 26.5214 32.8175C26.5698 33.1937 26.723 33.5135 26.9811 33.7768Z" fill="#858D99"/>
<path d="M58.5263 13.4703H63.0897V26.9406C63.0897 29.0693 63.4404 30.6089 64.1417 31.5594C64.843 32.5 65.974 32.9703 67.5346 32.9703C69.0261 32.9703 70.1028 32.5198 70.7646 31.6188C71.4363 30.7178 71.7721 29.2673 71.7721 27.2673V13.4703H75.7429V26.9703C75.7429 29 75.5503 30.5495 75.165 31.6188C74.7798 32.6782 74.0785 33.599 73.0611 34.3812C71.6684 35.4604 69.7966 36 67.4457 36C64.927 36 62.9021 35.4257 61.371 34.2772C60.3142 33.4852 59.5733 32.5495 59.1486 31.4703C58.7337 30.3812 58.5263 28.8663 58.5263 26.9257V13.4703Z" fill="#858D99"/>
<path d="M79.0321 35.4505L86.055 24.6238L79.3433 13.4703H84.6623L89.122 20.8663L93.9521 13.4703H97.6414L90.9148 23.8366L97.8785 35.4505H92.5742L87.8182 27.5941L82.7214 35.4505H79.0321Z" fill="#858D99"/>
<path d="M111.302 35.4505V13.4703H118.947C121.614 13.4703 123.516 13.9208 124.652 14.8218C125.797 15.7129 126.37 17.2079 126.37 19.3069C126.37 21.6832 125.605 23.5347 124.074 24.8614C122.553 26.1782 120.419 26.8366 117.673 26.8366H115.777V35.4505H111.302ZM115.777 23.8218H116.666C118.226 23.8218 119.456 23.4604 120.355 22.7376C121.264 22.0049 121.718 21.0149 121.718 19.7673C121.718 17.5792 120.33 16.4851 117.555 16.4851H115.777V23.8218Z" fill="#858D99"/>
<path d="M129.911 35.4505V12H134.297V35.4505H129.911Z" fill="#858D99"/>
<path d="M147.75 33.698C146.288 35.1139 144.723 35.8218 143.053 35.8218C141.631 35.8218 140.475 35.3861 139.586 34.5149C138.697 33.6436 138.253 32.5149 138.253 31.1287C138.253 29.3267 138.969 27.9406 140.401 26.9703C141.843 25.9901 143.903 25.5 146.58 25.5H147.75V24.0149C147.75 22.3218 146.787 21.4752 144.861 21.4752C143.152 21.4752 141.424 21.9604 139.675 22.9307V19.901C141.661 19.1485 143.626 18.7723 145.572 18.7723C149.829 18.7723 151.958 20.4703 151.958 23.8663V31.0842C151.958 32.3614 152.368 33 153.188 33C153.336 33 153.529 32.9802 153.766 32.9406L153.869 35.4059C152.941 35.6832 152.121 35.8218 151.41 35.8218C149.612 35.8218 148.456 35.1139 147.943 33.698H147.75ZM147.75 31.3366V28.0248H146.713C143.878 28.0248 142.461 28.9158 142.461 30.698C142.461 31.302 142.663 31.8119 143.068 32.2277C143.483 32.6337 143.992 32.8366 144.594 32.8366C145.622 32.8366 146.674 32.3366 147.75 31.3366Z" fill="#858D99"/>
<path d="M157.618 35.4505V19.1436H162.004V22.2178C163.436 19.9208 165.283 18.7723 167.545 18.7723C168.997 18.7723 170.143 19.2327 170.982 20.1535C171.822 21.0743 172.242 22.3317 172.242 23.9257V35.4505H167.856V25.0099C167.856 23.1584 167.244 22.2327 166.019 22.2327C164.626 22.2327 163.288 23.2178 162.004 25.1881V35.4505H157.618Z" fill="#858D99"/>
<path d="M190.806 34.901C188.722 35.5149 186.747 35.8218 184.88 35.8218C182.164 35.8218 180.02 35.0495 178.45 33.505C176.879 31.9604 176.094 29.8515 176.094 27.1782C176.094 24.6535 176.81 22.6238 178.242 21.0891C179.684 19.5446 181.586 18.7723 183.947 18.7723C186.327 18.7723 188.065 19.5248 189.162 21.0297C190.258 22.5347 190.806 24.9158 190.806 28.1733H180.717C181.013 31.2822 182.717 32.8366 185.828 32.8366C187.3 32.8366 188.959 32.4951 190.806 31.8119V34.901ZM180.657 25.6931H186.495C186.495 22.9109 185.601 21.5198 183.813 21.5198C181.996 21.5198 180.944 22.9109 180.657 25.6931Z" fill="#858D99"/>
<path d="M203.726 35.3614C202.679 35.6683 201.855 35.8218 201.252 35.8218C197.449 35.8218 195.548 34.0396 195.548 30.4752V21.8911H193.725V19.1436H195.548V16.396L199.933 15.8911V19.1436H203.415V21.8911H199.933V29.896C199.933 31.896 200.748 32.896 202.378 32.896C202.753 32.896 203.203 32.8267 203.726 32.6881V35.3614Z" fill="#858D99"/>
</svg>
